#!OML:ASF X:\für Bonn\!DataBase\2005_08_10_Bjorn_Final\c3d\bjorn.ASF
:FULLY-SPECIFIED
:DEGREES
278
root 23.1458 16.9789 -0.611584 26.082 -64.4181 -339.979
lowerback 64.4109 0.650712 7.50315
upperback 17.5442 2.69071 0.319852
thorax -1.25405 1.14294 -3.82598
lowerneck -5.90295 -4.26813 8.47632
upperneck -11.4635 -6.15817 1.63829
head -2.90592 -3.61566 -0.845028
rclavicle 6.04305e-014 -1.43125e-014
rhumerus 87.009 10.464 -39.507
rradius 1.17606
rwrist 46.3442
rhand -37.2309 25.3566
rfingers 7.12502
rthumb -10.2974 -4.37131
lclavicle 6.04305e-014 -1.43125e-014
lhumerus 63.558 -16.569 98.7604
lradius 9.22979
lwrist -66.9355
lhand -27.655 -4.43867
lfingers 7.12502
lthumb -1.05272 25.5385
rfemur -87.8735 -17.9687 15.6567
rtibia 69.6527
rfoot -20.7786 4.98758
rtoes -13.7476
lfemur -87.1196 3.9814 -32.1159
ltibia 65.5632
lfoot -13.5833 -7.71768
ltoes -8.04593
279
root 23.1474 16.9889 -0.614389 26.1682 -64.5719 -340.092
lowerback 64.0325 0.730605 7.38306
upperback 17.6651 2.65532 0.224645
thorax -1.13272 1.13662 -3.87494
lowerneck -6.17272 -4.22813 8.52616
upperneck -11.3562 -6.13938 1.63752
head -2.82254 -3.60441 -0.862338
rclavicle 6.04305e-014 1.27222e-014
rhumerus 86.5559 10.3426 -39.2432
rradius 1.80159
rwrist 44.7061
rhand -36.9813 24.6827
rfingers 7.12502
rthumb -10.0566 -5.05706
lclavicle 6.04305e-014 1.27222e-014
lhumerus 63.4645 -16.3842 98.6005
lradius 9.30685
lwrist -66.7114
lhand -27.7147 -4.41619
lfingers 7.12502
lthumb -1.11034 25.5607
rfemur -87.8077 -17.7873 15.6352
rtibia 69.5062
rfoot -20.6959 4.98001
rtoes -13.683
lfemur -87.0632 4.07743 -32.0432
ltibia 65.4603
lfoot -13.5835 -7.59817
ltoes -8.16976
280
root 23.151 17.0001 -0.616643 26.1878 -64.7672 -340.135
lowerback 63.6409 0.810465 7.24871
upperback 17.7786 2.61038 0.0937409
thorax -1.01952 1.12915 -3.95377
lowerneck -6.34307 -4.2088 8.59098
upperneck -11.3045 -6.13449 1.66763
head -2.77618 -3.60376 -0.868499
rclavicle 7.95139e-014 -1.90833e-014
rhumerus 86.0191 10.2294 -39.0224
rradius 2.46872
rwrist 42.7692
rhand -36.8645 23.9712
rfingers 7.12502
rthumb -9.94392 -5.77389
lclavicle 7.95139e-014 -1.90833e-014
lhumerus 63.3538 -16.1895 98.41
lradius 9.37015
lwrist -66.4624
lhand -27.7551 -4.41705
lfingers 7.12502
lthumb -1.14935 25.5596
rfemur -87.7474 -17.6055 15.5838
rtibia 69.3436
rfoot -20.5955 4.9823
rtoes -13.7689
lfemur -87.002 4.17143 -32.0059
ltibia 65.3449
lfoot -13.5995 -7.42422
ltoes -8.473
281
root 23.1547 17.0115 -0.619235 26.2434 -64.9894 -340.232
lowerback 63.2577 0.922757 7.0759
upperback 17.883 2.5821 -0.0196238
thorax -0.917733 1.12276 -4.00269
lowerneck -6.56062 -4.18064 8.61542
upperneck -11.1982 -6.12338 1.68972
head -2.70117 -3.5955 -0.872594
rclavicle 7.31528e-014 3.18055e-015
rhumerus 85.4669 10.1126 -38.7559
rradius 3.19614
rwrist 40.6687
rhand -36.7371 23.3086
rfingers 7.12502
rthumb -9.82099 -6.44234
lclavicle 7.31528e-014 3.18055e-015
lhumerus 63.2112 -15.9848 98.2579
lradius 9.45246
lwrist -66.1912
lhand -27.7889 -4.3751
lfingers 7.12502
lthumb -1.18206 25.6014
rfemur -87.6547 -17.3648 15.5095
rtibia 69.1711
rfoot -20.4988 4.98603
rtoes -13.6779
lfemur -86.9334 4.31947 -31.9698
ltibia 65.2291
lfoot -13.5786 -7.2935
ltoes -8.5341
282
root 23.1595 17.0241 -0.619606 26.386 -65.1758 -340.409
lowerback 62.8111 0.985962 6.96415
upperback 18.0054 2.53043 -0.155546
thorax -0.790946 1.11285 -4.09341
lowerneck -6.72921 -4.14254 8.71282
upperneck -11.1518 -6.09616 1.70559
head -2.65834 -3.5847 -0.888961
rclavicle 1.27222e-014 -1.59028e-015
rhumerus 84.8837 9.97652 -38.519
rradius 3.96771
rwrist 38.3537
rhand -36.6469 22.6752
rfingers 7.12502
rthumb -9.73402 -7.07988
lclavicle 1.27222e-014 -1.59028e-015
lhumerus 63.0628 -15.7183 98.0449
lradius 9.55657
lwrist -65.8774
lhand -27.7772 -4.42793
lfingers 7.12502
lthumb -1.17073 25.5486
rfemur -87.5859 -17.1749 15.5246
rtibia 68.9833
rfoot -20.3832 5.00366
rtoes -13.7371
lfemur -86.8715 4.42682 -31.8626
ltibia 65.105
lfoot -13.552 -7.19153
ltoes -8.34962
283
root 23.1638 17.0381 -0.620006 26.5565 -65.3435 -340.607
lowerback 62.3683 1.02564 6.89743
upperback 18.0968 2.48418 -0.31071
thorax -0.693846 1.1089 -4.22613
lowerneck -6.90256 -4.12198 8.84711
upperneck -11.0615 -6.09594 1.71896
head -2.60261 -3.58645 -0.91287
rclavicle -8.90555e-014 1.59028e-015
rhumerus 84.1912 9.85731 -38.3186
rradius 4.83786
rwrist 35.9123
rhand -36.377 21.9959
rfingers 7.12502
rthumb -9.47355 -7.77119
lclavicle -8.90555e-014 1.59028e-015
lhumerus 62.8931 -15.5087 97.8308
lradius 9.62491
lwrist -65.537
lhand -27.7611 -4.44948
lfingers 7.12502
lthumb -1.15516 25.5271
rfemur -87.5176 -17.0039 15.5672
rtibia 68.78
rfoot -20.2764 5.05111
rtoes -13.8156
lfemur -86.8143 4.52517 -31.7555
ltibia 64.9753
lfoot -13.5508 -7.03109
ltoes -8.56818
284
root 23.1687 17.0533 -0.621537 26.7262 -65.5107 -340.836
lowerback 61.928 1.07397 6.7988
upperback 18.197 2.43143 -0.442997
thorax -0.588653 1.0964 -4.31686
lowerneck -7.01472 -4.09461 8.89625
upperneck -11.0062 -6.07335 1.75673
head -2.56398 -3.57558 -0.912665
rclavicle -2.22639e-014 1.11319e-014
rhumerus 83.5204 9.77753 -38.0925
rradius 5.75849
rwrist 33.3619
rhand -36.0056 21.3058
rfingers 7.12502
rthumb -9.11521 -8.47721
lclavicle -2.22639e-014 1.11319e-014
lhumerus 62.7299 -15.2231 97.6284
lradius 9.67651
lwrist -65.1839
lhand -27.7281 -4.51593
lfingers 7.12502
lthumb -1.12326 25.4609
rfemur -87.3937 -16.8039 15.5863
rtibia 68.5659
rfoot -20.1562 5.08667
rtoes -13.5826
lfemur -86.7211 4.63593 -31.6347
ltibia 64.8278
lfoot -13.5178 -6.86421
ltoes -8.73483
285
root 23.1725 17.0706 -0.623643 26.9331 -65.6476 -341.135
lowerback 61.5155 1.11747 6.73446
upperback 18.2943 2.39656 -0.549555
thorax -0.48223 1.09022 -4.39949
lowerneck -7.21486 -4.07982 8.91306
upperneck -10.9002 -6.07666 1.81502
head -2.4918 -3.57471 -0.903004
rclavicle 0 1.74931e-014
rhumerus 82.8148 9.6647 -37.8148
rradius 6.70726
rwrist 30.6628
rhand -35.525 20.7797
rfingers 7.12502
rthumb -8.65148 -9.02302
lclavicle 0 1.74931e-014
lhumerus 62.5295 -14.94 97.4437
lradius 9.7822
lwrist -64.8785
lhand -27.6492 -4.6575
lfingers 7.12502
lthumb -1.04714 25.3197
rfemur -87.2353 -16.6143 15.6524
rtibia 68.3409
rfoot -20.0475 5.08292
rtoes -13.6675
lfemur -86.5823 4.76035 -31.4828
ltibia 64.661
lfoot -13.4975 -6.73148
ltoes -8.92554
286
root 23.1756 17.0886 -0.627517 27.0657 -65.7839 -341.364
lowerback 61.1065 1.16421 6.65041
upperback 18.3813 2.35942 -0.650063
thorax -0.387904 1.08062 -4.46585
lowerneck -7.38252 -4.07135 8.90882
upperneck -10.7924 -6.08401 1.86926
head -2.42428 -3.57456 -0.89039
rclavicle 6.36111e-015 8.11041e-014
rhumerus 82.038 9.58085 -37.5377
rradius 7.7034
rwrist 27.8038
rhand -34.8623 20.4563
rfingers 7.12502
rthumb -8.01191 -9.37186
lclavicle 6.36111e-015 8.11041e-014
lhumerus 62.2984 -14.637 97.2621
lradius 9.87511
lwrist -64.5225
lhand -27.6222 -4.78578
lfingers 7.12502
lthumb -1.02106 25.1915
rfemur -87.0495 -16.4364 15.6797
rtibia 68.1067
rfoot -19.9532 5.10444
rtoes -13.5669
lfemur -86.4132 4.85558 -31.3311
ltibia 64.4742
lfoot -13.4735 -6.58468
ltoes -9.10309
287
root 23.1783 17.1104 -0.631632 27.117 -65.8814 -341.577
lowerback 60.7822 1.1853 6.5964
upperback 18.4407 2.32152 -0.724679
thorax -0.322913 1.0674 -4.51488
lowerneck -7.54152 -4.07187 8.8721
upperneck -10.6543 -6.10104 1.92464
head -2.34721 -3.57626 -0.872243
rclavicle -9.85972e-014 -6.36111e-015
rhumerus 81.2354 9.50158 -37.2206
rradius 8.62521
rwrist 25.1181
rhand -34.1381 20.2241
rfingers 7.12502
rthumb -7.31285 -9.62954
lclavicle -9.85972e-014 -6.36111e-015
lhumerus 61.9947 -14.3206 97.1148
lradius 10.0407
lwrist -64.1819
lhand -27.5571 -4.87023
lfingers 7.12502
lthumb -0.958146 25.1074
rfemur -86.7766 -16.2898 15.6972
rtibia 67.8623
rfoot -19.8452 5.13106
rtoes -13.4548
lfemur -86.1424 4.95967 -31.1961
ltibia 64.2553
lfoot -13.4177 -6.49404
ltoes -9.21709
